<?xml version="1.0" encoding="utf-8"?><svg viewBox="0 0 58 58" xmlns="http://www.w3.org/2000/svg" xmlns:xlink="http://www.w3.org/1999/xlink"><style>:root>svg{display:none}:root>svg:target{display:block}</style><svg viewBox="0 0 18 19" id="angle"><g clip-path="url(#aclip0_72_42)"><path d="M9.52 13.964l7.697-7.699a.867.867 0 000-1.223.862.862 0 00-1.222 0L8.91 12.13 1.824 5.042A.864.864 0 10.602 6.266l7.696 7.699a.872.872 0 001.222 0z" fill="inherit"/></g><defs><clipPath id="aclip0_72_42"><path fill="inherit" transform="rotate(90 8.264 9.205)" d="M0 0h17.12v17.12H0z"/></clipPath></defs></svg><svg fill="none" viewBox="0 0 8 12" id="arrow-select" xmlns="http://www.w3.org/2000/svg"><path d="M7.128 5.572L1.732.177a.608.608 0 00-.858 0 .605.605 0 000 .856L5.842 6 .875 10.966a.605.605 0 10.857.857L7.13 6.428a.611.611 0 000-.856z" fill="#241600"/></svg><svg viewBox="0 0 10 6" id="chevron"><path d="M4.643 5.607L.148 1.11A.504.504 0 11.86.395L5 4.535 9.139.395a.504.504 0 11.713.715L5.357 5.607a.51.51 0 01-.714 0z" fill="inherit"/></svg><svg viewBox="0 0 16 16" id="clock"><path d="M8 0C3.59 0 0 3.589 0 8s3.589 8 8 8 8-3.589 8-8-3.589-8-8-8zm0 14.854A6.861 6.861 0 011.147 8 6.861 6.861 0 018 1.147 6.86 6.86 0 0114.853 8 6.861 6.861 0 018 14.854z" fill="inherit"/><path d="M12.113 7.866h-3.76v-4.11a.573.573 0 10-1.146 0V8.44c0 .317.257.574.573.574h4.333a.573.573 0 100-1.147z" fill="inherit"/></svg><svg viewBox="0 0 16 16" id="copy"><g clip-path="url(#eclip0_77_320)" fill="inherit"><path d="M11.429 2.857H1.714C.768 2.857 0 3.625 0 4.571v9.715C0 15.233.768 16 1.714 16h9.715c.946 0 1.714-.768 1.714-1.714V4.57c0-.946-.768-1.714-1.714-1.714z"/><path d="M14.286 0H4c-.942 0-1.707.76-1.714 1.701v.013h9.143a2.86 2.86 0 012.857 2.857v9.143h.013A1.714 1.714 0 0016 12V1.714C16 .768 15.232 0 14.286 0z"/></g><defs><clipPath id="eclip0_77_320"><path fill="#fff" d="M0 0h16v16H0z"/></clipPath></defs></svg><svg viewBox="0 0 20 20" id="filter"><g clip-path="url(#fclip0_77_706)" fill="inherit"><path fill-rule="evenodd" clip-rule="evenodd" d="M5.937 5.5a2 2 0 110-1H19.5a.5.5 0 010 1H5.937zM5 5a1 1 0 11-2 0 1 1 0 012 0z"/><path d="M.5 5.5h1.563a2.002 2.002 0 010-1H.5a.5.5 0 100 1z"/><path fill-rule="evenodd" clip-rule="evenodd" d="M11.937 14.5a2.001 2.001 0 00-3.874 0H.5a.5.5 0 000 1h7.563a2 2 0 003.874 0H19.5a.5.5 0 000-1h-7.563zM10 16a1 1 0 100-2 1 1 0 000 2zM17.937 9.5a2 2 0 00-3.874 0H.5a.5.5 0 000 1h13.563a2.001 2.001 0 003.874 0H19.5a.5.5 0 000-1h-1.563zM16 11a1 1 0 100-2 1 1 0 000 2z"/></g><defs><clipPath id="fclip0_77_706"><path fill="#fff" d="M0 0h20v20H0z"/></clipPath></defs></svg><svg viewBox="0 0 22 22" id="home"><path d="M15.57 21.997H6.429A3.928 3.928 0 012.36 18.26v-4.902a.785.785 0 011.57 0v4.902a2.356 2.356 0 002.498 2.167h9.143a2.356 2.356 0 002.498-2.167v-4.902a.785.785 0 111.57 0v4.902a3.928 3.928 0 01-4.068 3.738zm6.198-10.438a.786.786 0 000-1.116L11.558.233a.786.786 0 00-1.116 0L.23 10.442a.789.789 0 001.115 1.116L11 1.897l9.653 9.662a.786.786 0 001.115 0z" fill="inherit"/></svg><svg viewBox="0 0 22 22" id="instagram"><g clip-path="url(#hclip0_63_1001)" fill="inherit"><path d="M15.61 0H6.39A6.398 6.398 0 000 6.39v9.22A6.398 6.398 0 006.39 22h9.22A6.398 6.398 0 0022 15.61V6.39A6.398 6.398 0 0015.61 0zm4.671 15.61a4.677 4.677 0 01-4.672 4.671H6.391a4.677 4.677 0 01-4.672-4.672V6.391A4.677 4.677 0 016.39 1.719h9.218a4.677 4.677 0 014.672 4.672v9.218z"/><path d="M11 5.07c-3.27 0-5.93 2.66-5.93 5.93 0 3.27 2.66 5.93 5.93 5.93 3.27 0 5.93-2.66 5.93-5.93 0-3.27-2.66-5.93-5.93-5.93zm0 10.14A4.216 4.216 0 016.79 11 4.216 4.216 0 0111 6.79 4.216 4.216 0 0115.21 11 4.216 4.216 0 0111 15.21zM17.016 5.844a.86.86 0 100-1.72.86.86 0 000 1.72z"/></g><defs><clipPath id="hclip0_63_1001"><path fill="inherit" d="M0 0h22v22H0z"/></clipPath></defs></svg><svg viewBox="0 0 16 16" id="location"><path d="M8 0a5.801 5.801 0 00-5.795 5.795c0 3.965 5.186 9.786 5.407 10.032.207.23.57.23.776 0 .221-.246 5.407-6.067 5.407-10.032C13.795 2.599 11.195 0 8 0zm0 14.679c-1.745-2.073-4.751-6.163-4.751-8.884A4.756 4.756 0 018 1.043a4.756 4.756 0 014.751 4.752c0 2.721-3.005 6.81-4.751 8.884z" fill="inherit"/><path d="M8 2.88a2.919 2.919 0 00-2.915 2.915A2.919 2.919 0 008 8.71a2.919 2.919 0 002.915-2.915A2.919 2.919 0 008 2.879zm0 4.786a1.874 1.874 0 01-1.872-1.871c0-1.033.84-1.872 1.872-1.872s1.872.84 1.872 1.872S9.032 7.666 8 7.666z" fill="inherit"/></svg><svg viewBox="0 0 22 22" id="loupe"><path d="M9.688 0C4.346 0 0 4.346 0 9.688c0 5.343 4.346 9.689 9.688 9.689 5.343 0 9.689-4.346 9.689-9.689C19.377 4.346 15.03 0 9.688 0zm0 17.588c-4.356 0-7.9-3.544-7.9-7.9 0-4.355 3.544-7.9 7.9-7.9s7.9 3.544 7.9 7.9-3.544 7.9-7.9 7.9z" fill="inherit"/><path d="M21.738 20.473l-5.127-5.127a.894.894 0 10-1.265 1.265l5.127 5.127a.891.891 0 001.265 0 .894.894 0 000-1.265z" fill="inherit"/></svg><svg viewBox="0 -2 26 26" id="map-mark"><path d="M12 0C7.207 0 3.308 3.9 3.308 8.692c0 5.948 7.778 14.68 8.11 15.048a.783.783 0 001.164 0c.332-.368 8.11-9.1 8.11-15.048C20.692 3.899 16.792 0 12 0zm0 22.018C9.382 18.91 4.873 12.774 4.873 8.692A7.135 7.135 0 0112 1.565a7.135 7.135 0 017.127 7.127c0 4.082-4.508 10.216-7.127 13.326z" fill="inherit"/><path d="M10.5 20.25L12 22.5l2.25-3.75 3-3.75.75-3 1.5-3.75v-1.5L17.25 4.5l-1.5-2.25L12 1.5l-3 .75h-.75L6 4.5l-1.5 3v3l1.5 3L9 18l1.5 2.25z" fill="inherit" stroke="inherit" stroke-width=".828"/></svg><svg fill="none" viewBox="0 0 58 58" id="pdf" xmlns="http://www.w3.org/2000/svg"><path d="M50.95 12.187l-.771-.771L40.084 1.321 39.313.55A1.891 1.891 0 0037.985 0H8.963C7.777 0 6.5.916 6.5 2.926V56c0 .837.842 1.653 1.838 1.91.05.013.098.032.15.042.156.031.315.048.475.048h40.074c.16 0 .319-.017.475-.048.052-.01.1-.029.15-.042.996-.257 1.838-1.073 1.838-1.91V13.978c0-.767-.092-1.333-.55-1.791zM47.935 12H39.5V3.565L47.935 12zM8.963 56c-.071 0-.135-.026-.198-.049a.458.458 0 01-.265-.414V41h41v14.537a.46.46 0 01-.265.414c-.063.023-.127.049-.198.049H8.963zM8.5 39V2.926c0-.217.033-.926.463-.926h28.595a1.54 1.54 0 00-.058.391V14h11.609c.135 0 .264-.025.39-.058l.001.036V39h-41z" fill="#B7B000"/><path d="M22.042 44.744a3.438 3.438 0 00-1.128-.615 4.067 4.067 0 00-1.271-.205h-2.898V54h1.641v-3.637h1.217c.528 0 1.012-.077 1.449-.232a3.267 3.267 0 001.121-.656c.31-.282.551-.631.725-1.046.173-.415.26-.877.26-1.388 0-.483-.103-.918-.308-1.306a3.215 3.215 0 00-.808-.991zm-.622 3.329c-.101.278-.232.494-.396.649a1.499 1.499 0 01-.54.335 1.808 1.808 0 01-.595.103h-1.504v-3.992h1.23c.419 0 .756.066 1.012.198.255.132.453.296.595.492.141.196.234.4.28.615a2.8 2.8 0 01.068.567c0 .411-.05.755-.15 1.033zM31.954 45.4a4.631 4.631 0 00-1.6-1.073c-.643-.268-1.388-.403-2.235-.403h-3.035V54h3.814c.127 0 .323-.016.588-.048.264-.032.556-.104.875-.219.319-.114.649-.285.991-.513.342-.228.649-.54.923-.937s.499-.89.677-1.477c.178-.588.267-1.297.267-2.126a5.06 5.06 0 00-.314-1.757 4.436 4.436 0 00-.951-1.523zm-1.196 6.33c-.492.711-1.294 1.066-2.406 1.066h-1.627v-7.629h.957c.784 0 1.422.103 1.914.308.492.205.882.474 1.169.807.287.333.48.704.581 1.114.1.41.15.825.15 1.244 0 1.349-.246 2.38-.738 3.09zM35.598 54h1.668v-4.54h4.211v-1.12h-4.211v-3.172H41.9v-1.244h-6.302V54zM38.428 22.961c-.919 0-2.047.12-3.358.358-1.83-1.942-3.74-4.778-5.088-7.562 1.337-5.629.668-6.426.373-6.802-.314-.4-.757-1.049-1.261-1.049-.211 0-.787.096-1.016.172-.576.192-.886.636-1.134 1.215-.707 1.653.263 4.471 1.261 6.643-.853 3.393-2.284 7.454-3.788 10.75-3.79 1.736-5.803 3.441-5.985 5.068-.066.592.074 1.461 1.115 2.242.285.213.619.326.967.326.875 0 1.759-.67 2.782-2.107.746-1.048 1.547-2.477 2.383-4.251 2.678-1.171 5.991-2.229 8.828-2.822 1.58 1.517 2.995 2.285 4.211 2.285.896 0 1.664-.412 2.22-1.191.579-.811.711-1.537.39-2.16-.385-.749-1.334-1.115-2.9-1.115zm-17.892 9.673c-.468-.359-.441-.601-.431-.692.062-.556.933-1.543 3.07-2.744-1.62 2.992-2.49 3.389-2.639 3.436zm8.2-22.922c.043-.014 1.045 1.101.096 3.216-1.426-1.459-.194-3.183-.096-3.216zm-2.067 16.026a71.291 71.291 0 002.674-7.564c1.123 2.018 2.472 3.976 3.822 5.544a49.812 49.812 0 00-6.496 2.02zm12.901-.479c-.308.431-.976.441-1.21.441-.533 0-.732-.317-1.547-.944a14.395 14.395 0 011.811-.108c.889 0 1.052.131 1.175.197-.022.071-.08.205-.229.414z" fill="#B7B000"/></svg><svg fill="none" viewBox="0 0 28 28" id="phone" xmlns="http://www.w3.org/2000/svg"><circle cx="13.768" cy="13.768" r="13.768" fill="#B7B000"/><g clip-path="url(#mclip0_65_139)"><path d="M20.277 16.988l-1.922-1.92c-.686-.687-1.852-.413-2.127.48-.206.617-.892.96-1.51.823-1.372-.343-3.225-2.127-3.568-3.568-.206-.618.206-1.304.824-1.51.892-.275 1.166-1.441.48-2.127l-1.921-1.922c-.55-.48-1.373-.48-1.853 0L7.376 8.548c-1.304 1.373.137 5.01 3.362 8.235 3.226 3.225 6.863 4.734 8.235 3.362l1.304-1.304c.48-.549.48-1.372 0-1.853z" fill="#fff"/></g><defs><clipPath id="mclip0_65_139"><path fill="#fff" transform="translate(6.884 6.884)" d="M0 0h13.768v13.768H0z"/></clipPath></defs></svg><svg fill="none" viewBox="0 0 28 28" id="telegram" xmlns="http://www.w3.org/2000/svg"><g clip-path="url(#nclip0_65_136)"><path d="M14 28c7.732 0 14-6.268 14-14S21.732 0 14 0 0 6.268 0 14s6.268 14 14 14z" fill="#039BE5"/><path d="M6.406 13.697l13.498-5.205c.627-.226 1.174.153.971 1.1h.001l-2.298 10.827c-.17.768-.627.954-1.265.593l-3.5-2.58-1.688 1.627c-.187.186-.344.344-.706.344l.249-3.562 6.486-5.86c.283-.249-.063-.389-.435-.142l-8.016 5.047-3.455-1.077c-.75-.239-.767-.75.158-1.112z" fill="#fff"/></g><defs><clipPath id="nclip0_65_136"><path fill="#fff" d="M0 0h28v28H0z"/></clipPath></defs></svg><svg fill="none" viewBox="0 0 28 28" id="viber" xmlns="http://www.w3.org/2000/svg"><g clip-path="url(#oclip0_65_145)"><path d="M16.8 0h-5.6C5.795 0 1.398 4.397 1.398 9.801v4.2A9.805 9.805 0 007 22.86v4.678c0 .406.508.618.797.33l4.064-4.064h4.94c5.405 0 9.802-4.397 9.802-9.801v-4.2C26.602 4.396 22.205 0 16.8 0z" fill="#665CAC"/><path d="M8.4 22.859a9.805 9.805 0 01-5.601-8.857v-4.2C2.799 4.396 7.195 0 12.599 0h-1.4C5.796 0 1.4 4.397 1.4 9.801v4.2a9.805 9.805 0 005.6 8.858v4.678c0 .406.508.618.797.33l.603-.604V22.86z" fill="#523494"/><path d="M21.047 17.396l-.42-2.273a.467.467 0 00-.368-.373l-3.3-.66a.467.467 0 00-.421.128l-1.341 1.34c-2.26-1.012-3.513-2.268-4.616-4.624l1.336-1.337a.467.467 0 00.128-.421l-.66-3.3a.467.467 0 00-.373-.368l-2.273-.42a.468.468 0 00-.188.004c-.6.137-1.148.439-1.584.875-.755.755-1.043 1.856-.834 3.185.35 2.232 1.444 5.337 3.461 7.363l.028.027c2.024 2.016 5.13 3.11 7.36 3.46.282.045.553.066.812.066.968 0 1.779-.305 2.374-.9.436-.436.739-.984.875-1.584a.471.471 0 00.004-.188z" fill="#fff"/><path d="M11.46 10.054l.457-.457-.456.457zM16.538 14.217l-.461.461.46-.46z" fill="#E5E5E5"/><path d="M18.674 19.188c-.26 0-.53-.022-.811-.066-2.232-.351-5.338-1.445-7.361-3.46l-.028-.028c-2.017-2.025-3.11-5.13-3.461-7.362-.17-1.074-.013-1.999.451-2.713a3.268 3.268 0 00-.497.408c-.755.755-1.044 1.856-.834 3.185.35 2.232 1.444 5.337 3.461 7.363l.028.027c2.023 2.016 5.129 3.11 7.36 3.46.282.044.553.066.812.066.968 0 1.779-.305 2.374-.9.153-.153.289-.32.407-.497-.527.342-1.169.517-1.9.517z" fill="#E5E5E5"/><path d="M14.933 7.934a.467.467 0 000 .934 1.87 1.87 0 011.867 1.867c0 .254.213.466.467.466a.471.471 0 00.467-.466c0-1.544-1.256-2.8-2.8-2.8z" fill="#fff"/><path d="M14.933 6.067c-.172 0-.346.01-.518.029a.467.467 0 00.103.928 3.738 3.738 0 014.127 4.127.471.471 0 00.412.514.471.471 0 00.515-.412 4.673 4.673 0 00-4.639-5.185z" fill="#fff"/><path d="M14.934 4.2c-.167 0-.336.007-.502.02a.467.467 0 00.07.93 5.607 5.607 0 015.882 6.877.471.471 0 00.331.558.471.471 0 00.578-.343 6.542 6.542 0 00-6.36-8.042z" fill="#fff"/></g><defs><clipPath id="oclip0_65_145"><path fill="#fff" d="M0 0h28v28H0z"/></clipPath></defs></svg></svg>