<svg viewBox="0 0 16 16">
<g clip-path="url(#clip0_77_320)">
<path d="M11.4286 2.85718H1.71428C0.767511 2.85718 0 3.62469 0 4.57146V14.2857C0 15.2325 0.767511 16 1.71428 16H11.4286C12.3753 16 13.1428 15.2325 13.1428 14.2857V4.57146C13.1428 3.62469 12.3753 2.85718 11.4286 2.85718Z" fill="inherit"/>
<path d="M14.2857 1.10693e-09H3.99999C3.05834 -3.3481e-05 2.29294 0.759508 2.28571 1.70113C2.28571 1.70571 2.28571 1.7097 2.28571 1.71428H11.4286C13.0057 1.71616 14.2838 2.99424 14.2857 4.57141V13.7143C14.2903 13.7143 14.2943 13.7143 14.2989 13.7143C15.2405 13.707 16 12.9416 16 12V1.71428C16 0.767511 15.2325 1.10693e-09 14.2857 1.10693e-09Z" fill="inherit"/>
</g>
<defs>
<clipPath id="clip0_77_320">
<rect width="16" height="16" fill="white"/>
</clipPath>
</defs>
</svg>
