<svg viewBox="0 0 22 22">
<path d="M15.5709 21.9973H6.42823C5.39431 22.0357 4.387 21.6645 3.62516 20.9645C2.86333 20.2644 2.40853 19.292 2.35958 18.2585V13.3573C2.35958 13.149 2.44233 12.9492 2.58963 12.8019C2.73693 12.6546 2.93672 12.5718 3.14503 12.5718C3.35335 12.5718 3.55313 12.6546 3.70043 12.8019C3.84773 12.9492 3.93049 13.149 3.93049 13.3573V18.2585C3.97876 18.8755 4.26779 19.4487 4.73514 19.8543C5.20249 20.2599 5.81064 20.4654 6.42823 20.4264H15.5709C16.1885 20.4654 16.7967 20.2599 17.264 19.8543C17.7314 19.4487 18.0204 18.8755 18.0687 18.2585V13.3573C18.0687 13.149 18.1514 12.9492 18.2987 12.8019C18.446 12.6546 18.6458 12.5718 18.8541 12.5718C19.0624 12.5718 19.2622 12.6546 19.4095 12.8019C19.5568 12.9492 19.6396 13.149 19.6396 13.3573V18.2585C19.5906 19.292 19.1358 20.2644 18.374 20.9645C17.6122 21.6645 16.6049 22.0357 15.5709 21.9973ZM21.7682 11.5586C21.8418 11.4856 21.9002 11.3987 21.9401 11.303C21.98 11.2073 22.0005 11.1046 22.0005 11.0009C22.0005 10.8972 21.98 10.7946 21.9401 10.6989C21.9002 10.6031 21.8418 10.5163 21.7682 10.4432L11.5573 0.232336C11.4842 0.158717 11.3974 0.100283 11.3016 0.0604069C11.2059 0.0205304 11.1033 0 10.9996 0C10.8959 0 10.7932 0.0205304 10.6975 0.0604069C10.6018 0.100283 10.5149 0.158717 10.4419 0.232336L0.230996 10.4432C0.0830916 10.5912 0 10.7918 0 11.0009C0 11.2101 0.0830916 11.4107 0.230996 11.5586C0.3789 11.7065 0.579501 11.7896 0.788669 11.7896C0.997837 11.7896 1.19844 11.7065 1.34634 11.5586L10.9996 1.8975L20.6528 11.5586C20.7258 11.6322 20.8127 11.6906 20.9084 11.7305C21.0041 11.7704 21.1068 11.7909 21.2105 11.7909C21.3142 11.7909 21.4168 11.7704 21.5126 11.7305C21.6083 11.6906 21.6951 11.6322 21.7682 11.5586Z" fill="inherit"/>
</svg>
