<svg viewBox="0 -2 26 26">
<path d="M12 0C7.20725 0 3.30809 3.89916 3.30809 8.69184C3.30809 14.6397 11.0865 23.3715 11.4177 23.7404C11.7287 24.0868 12.2718 24.0862 12.5823 23.7404C12.9135 23.3715 20.6919 14.6397 20.6919 8.69184C20.6918 3.89916 16.7927 0 12 0ZM12 22.0185C9.38216 18.909 4.87334 12.774 4.87334 8.69194C4.87334 4.76222 8.07031 1.56525 12 1.56525C15.9297 1.56525 19.1266 4.76222 19.1266 8.69189C19.1266 12.7741 14.6185 18.908 12 22.0185Z" fill="inherit"/>
<path d="M10.5 20.25L12 22.5L14.25 18.75L17.25 15L18 12L19.5 8.25V6.75L17.25 4.5L15.75 2.25L12 1.5L9 2.25H8.25L6 4.5L4.5 7.5V10.5L6 13.5L9 18L10.5 20.25Z" fill="inherit" stroke="inherit" stroke-width="0.827586"/>
</svg>
