<svg width="28" height="28" viewBox="0 0 28 28" fill="none" xmlns="http://www.w3.org/2000/svg">
<circle cx="13.7681" cy="13.7681" r="13.7681" fill="#B7B000"/>
<g clip-path="url(#clip0_65_139)">
<path d="M20.2767 16.9884L18.3553 15.0671C17.6691 14.3809 16.5025 14.6554 16.2281 15.5474C16.0222 16.165 15.336 16.5081 14.7184 16.3709C13.346 16.0278 11.4932 14.2436 11.1501 12.8026C10.9443 12.185 11.356 11.4988 11.9736 11.2929C12.8656 11.0184 13.1401 9.85188 12.4539 9.16567L10.5325 7.24429C9.98356 6.76395 9.16012 6.76395 8.67977 7.24429L7.37598 8.54809C6.07218 9.9205 7.51322 13.5574 10.7384 16.7826C13.9636 20.0078 17.6005 21.5174 18.9729 20.145L20.2767 18.8412C20.7571 18.2922 20.7571 17.4688 20.2767 16.9884Z" fill="white"/>
</g>
<defs>
<clipPath id="clip0_65_139">
<rect width="13.7681" height="13.7681" fill="white" transform="translate(6.88406 6.88403)"/>
</clipPath>
</defs>
</svg>
