<svg width="270" height="48" viewBox="0 0 270 48" fill="none" xmlns="http://www.w3.org/2000/svg">
<g clip-path="url(#clip0_89_594)">
<path d="M27.3228 0H36.7763V48H27.3228V0Z" fill="white"/>
<path d="M0 0H9.45346V48H0V0Z" fill="white"/>
<path d="M13.6806 0H23.0956V48H13.6806V0Z" fill="white"/>
<path d="M94.1503 30.62V27.3393C94.1503 19.9967 89.5004 14.5679 82.3911 14.5679C75.2818 14.5679 70.5551 20.1139 70.5551 28.511C70.5551 36.908 74.9359 42.5321 82.3911 42.5321C88.386 42.5321 92.6516 39.4076 93.766 34.0569H87.7711C87.0794 36.0879 84.9658 37.4939 82.3527 37.4939C79.1247 37.4939 76.6652 35.3849 76.6652 32.5338V30.6591H94.1503V30.62ZM88.0017 25.5427H76.6268V24.6054C76.6268 21.7152 79.0862 19.6452 82.3143 19.6452C85.5423 19.6452 88.0017 21.7152 88.0017 24.6054V25.5427Z" fill="white"/>
<path d="M270 30.62V27.3393C270 19.9967 265.35 14.5679 258.241 14.5679C251.132 14.5679 246.405 20.1139 246.405 28.511C246.405 36.908 250.786 42.5321 258.241 42.5321C264.236 42.5321 268.501 39.4076 269.616 34.0569H263.621C262.929 36.0879 260.816 37.4939 258.202 37.4939C254.974 37.4939 252.515 35.3849 252.515 32.5338V30.6591H270V30.62ZM263.89 25.5427H252.515V24.6054C252.515 21.7152 254.974 19.6452 258.202 19.6452C261.43 19.6452 263.89 21.7543 263.89 24.6054V25.5427Z" fill="white"/>
<path d="M100.568 41.9073H107.024V20.3092H115.286V15.1929H100.568V41.9073Z" fill="white"/>
<path d="M137.69 20.2701H147.835V15.1928H137.69V6.28802H131.272V41.9072H137.69V20.2701Z" fill="white"/>
<path d="M152.178 20.2701V15.1928V6.28802H158.634V41.9072H152.178V20.2701Z" fill="white"/>
<path d="M182.844 41.9073H189.3V15.1929H182.844V30.6591C182.844 34.5257 180.692 37.2205 177.233 37.2205C174.197 37.2205 173.121 35.3458 173.121 32.2604V15.1929H166.665V32.69C166.665 38.8609 169.509 42.5322 175.12 42.5322C178.847 42.5322 181.268 40.8918 182.844 38.0407V41.9073Z" fill="white"/>
<path d="M189.492 6.24896H166.857V9.64685H189.492V6.24896Z" fill="white"/>
<path d="M197.216 41.9073H203.672V20.3092H211.934V15.1929H197.216V41.9073Z" fill="white"/>
<path d="M223.617 15.1928H217.161V41.9072H223.617V26.441C223.617 22.5744 225.73 19.8796 229.304 19.8796C232.378 19.8796 233.57 21.7152 233.57 24.8397V41.8682H240.026V24.4101C240.026 18.2783 237.297 14.5679 231.418 14.5679C227.69 14.5679 225.231 16.2473 223.617 19.0594V15.1928Z" fill="white"/>
<path d="M59.1802 20.2701H67.4424V15.1928H59.1802V6.28802H52.7626V41.9072H59.1802V20.2701Z" fill="white"/>
</g>
<defs>
<clipPath id="clip0_89_594">
<rect width="270" height="48" fill="white"/>
</clipPath>
</defs>
</svg>
